<svg viewBox="0 0 200 200" xmlns="http://www.w3.org/2000/svg" fill="none">
  <defs>
    <linearGradient id="decidr-d" x1="0" x2="200" y1="0" y2="200">
      <stop offset="0%" stop-color="#2541B2" />
      <stop offset="60%" stop-color="#3B3FBE" />
      <stop offset="100%" stop-color="#6E40C9" />
    </linearGradient>
    <linearGradient id="decidr-bar" x1="0" x2="0" y1="200" y2="0">
      <stop offset="0%" stop-color="#3B82F6" />
      <stop offset="100%" stop-color="#7CC0FF" />
    </linearGradient>
    <linearGradient id="decidr-arrow" x1="20" x2="180" y1="180" y2="40">
      <stop offset="0%" stop-color="#1E40AF" />
      <stop offset="100%" stop-color="#3B82F6" />
    </linearGradient>
  </defs>
  <path d="M 36 22 H 104 A 78 78 0 0 1 104 178 H 36 Z M 64 50 V 150 H 104 A 50 50 0 0 0 104 50 Z" fill="url(#decidr-d)" fill-rule="evenodd" />
  <g>
    <rect fill="url(#decidr-bar)" height="36" rx="2.5" width="11" x="70" y="110" />
    <rect fill="url(#decidr-bar)" height="56" rx="2.5" width="11" x="86" y="90" />
    <rect fill="url(#decidr-bar)" height="80" rx="2.5" width="11" x="102" y="66" />
  </g>
  <path d="M 44 152 Q 90 156 116 122 T 158 64" fill="none" stroke="url(#decidr-arrow)" stroke-linecap="round" stroke-width="11" />
  <path d="M 138 50 L 168 56 L 158 84 Z" fill="url(#decidr-arrow)" />
</svg>
