<svg xmlns="http://www.w3.org/2000/svg" viewBox="0 0 900 900" role="img" aria-label="LUMA YUZU buyer sample case">
  <defs>
    <linearGradient id="carton" x1="150" x2="760" y1="220" y2="760" gradientUnits="userSpaceOnUse">
      <stop offset="0" stop-color="#f4e4a8"/>
      <stop offset=".46" stop-color="#d8bf74"/>
      <stop offset="1" stop-color="#f1df9a"/>
    </linearGradient>
    <linearGradient id="can" x1="0" x2="1" y1="0" y2="1">
      <stop offset="0" stop-color="#a4efd8"/>
      <stop offset=".55" stop-color="#dfff4d"/>
      <stop offset="1" stop-color="#80d9c4"/>
    </linearGradient>
    <linearGradient id="metal" x1="0" x2="1">
      <stop offset="0" stop-color="#747d73"/>
      <stop offset=".48" stop-color="#f0f4ea"/>
      <stop offset="1" stop-color="#6b746b"/>
    </linearGradient>
  </defs>
  <ellipse cx="456" cy="815" rx="318" ry="58" fill="#0d2218" opacity=".16"/>
  <path d="M144 308L420 192L782 292L500 418Z" fill="#f4e4a8"/>
  <path d="M144 308L500 418L500 778L144 642Z" fill="url(#carton)"/>
  <path d="M500 418L782 292L782 638L500 778Z" fill="#c8ad62"/>
  <path d="M214 370L456 448L456 648L214 560Z" fill="#f8edbd" opacity=".58"/>
  <text x="334" y="464" text-anchor="middle" font-family="Bahnschrift, Aptos Display, Arial Narrow, Arial, sans-serif" font-size="58" font-weight="900" fill="#062818">LUMA</text>
  <text x="334" y="520" text-anchor="middle" font-family="Bahnschrift, Aptos Display, Arial Narrow, Arial, sans-serif" font-size="32" font-weight="900" letter-spacing="7" fill="#062818">YUZU</text>
  <text x="334" y="574" text-anchor="middle" font-family="Aptos, Segoe UI, Arial, sans-serif" font-size="18" font-weight="900" letter-spacing="3" fill="#062818">BUYER SAMPLE CASE</text>
  <g transform="translate(540 296)">
    <g transform="translate(0 60)">
      <rect x="0" y="0" width="84" height="226" rx="34" fill="url(#can)"/>
      <ellipse cx="42" cy="0" rx="42" ry="12" fill="url(#metal)"/>
      <ellipse cx="42" cy="226" rx="42" ry="12" fill="url(#metal)"/>
      <text x="42" y="118" text-anchor="middle" font-family="Bahnschrift, Arial, sans-serif" font-size="30" font-weight="900" fill="#062818">L</text>
    </g>
    <g transform="translate(84 20)">
      <rect x="0" y="0" width="84" height="250" rx="34" fill="url(#can)"/>
      <ellipse cx="42" cy="0" rx="42" ry="12" fill="url(#metal)"/>
      <ellipse cx="42" cy="250" rx="42" ry="12" fill="url(#metal)"/>
      <text x="42" y="130" text-anchor="middle" font-family="Bahnschrift, Arial, sans-serif" font-size="30" font-weight="900" fill="#062818">L</text>
    </g>
    <g transform="translate(168 70)">
      <rect x="0" y="0" width="84" height="216" rx="34" fill="url(#can)"/>
      <ellipse cx="42" cy="0" rx="42" ry="12" fill="url(#metal)"/>
      <ellipse cx="42" cy="216" rx="42" ry="12" fill="url(#metal)"/>
      <text x="42" y="112" text-anchor="middle" font-family="Bahnschrift, Arial, sans-serif" font-size="30" font-weight="900" fill="#062818">L</text>
    </g>
  </g>
  <path d="M144 308L420 192L782 292" fill="none" stroke="#7d6a35" stroke-width="3" opacity=".28"/>
  <g transform="translate(222 612)" fill="#062818" opacity=".82">
    <rect width="8" height="78"/><rect x="16" width="4" height="78"/><rect x="28" width="12" height="78"/><rect x="52" width="6" height="78"/><rect x="70" width="14" height="78"/><rect x="94" width="5" height="78"/>
  </g>
</svg>
